<svg xmlns="http://www.w3.org/2000/svg" viewBox="0 0 1080 272.69" role="img" aria-label="Mercado Pago">
<path transform="matrix(.1,0,0,-.1,0,272.69)" d="M1970.26 2675.72C902.664 2675.72 37.4063 2122.11 37.4063 1439.17 37.4063 756.219 902.805 149.07 1970.26 149.07 3037.72 149.07 3903.11 756.359 3903.11 1439.17 3903.11 2121.97 3037.72 2675.72 1970.26 2675.72" fill="#0eb5ea"/>
<path transform="matrix(.1,0,0,-.1,0,272.69)" d="M1341.27 1821.45C1340.3 1819.51 1321.39 1800.04 1333.63 1784.32 1363.52 1746.08 1455.86 1724.25 1549.17 1745.25 1604.8 1757.76 1676 1814.36 1744.98 1869.15 1819.79 1928.53 1894.05 1988.05 1968.59 2011.69 2047.58 2036.86 2098.2 2026.02 2131.58 2016 2168.29 2005.02 2211.4 1980.96 2280.23 1929.23 2409.84 1831.74 2930.92 1377 3020.89 1298.43 3093.34 1331.11 3438.78 1470.73 3876.69 1567.24 3838.59 1800.73 3698.13 2023.23 3482.72 2198.18 3182.48 2072.05 2791.02 1996.54 2432.23 2171.76 2430.42 2172.45 2236.29 2264.37 2044.66 2259.92 1760 2253.25 1636.65 2130.18 1506.2 1999.73L1340.86 1821.59 1341.27 1821.45" fill="#ffffff"/>
<path transform="matrix(.1,0,0,-.1,0,272.69)" d="M2999.89 1248.79C2993.77 1254.21 2387.18 1785.02 2249.78 1888.34 2170.23 1948 2126.01 1963.16 2079.57 1969.14 2055.37 1972.2 2021.99 1967.75 1998.63 1961.35 1934.66 1943.97 1851.08 1888.07 1776.96 1829.24 1700.2 1768.05 1627.75 1710.48 1560.44 1695.32 1474.5 1676.13 1369.64 1698.8 1321.8 1731.2 1302.47 1744.13 1288.71 1759.29 1282.17 1774.59 1264.51 1815.61 1297.05 1848.29 1302.47 1853.86L1469.91 2034.92C1489.38 2054.25 1508.98 2073.71 1529.01 2092.91 1474.91 2085.81 1424.99 2072.05 1376.46 2058.56 1315.82 2041.59 1257.42 2025.32 1198.45 2025.32 1173.84 2025.32 1041.73 2046.88 1016.7 2053.69 865.117 2095.13 693.512 2135.46 494.93 2228.21 256.988 2051.05 101.934 1833.55 56.043 1589.63 90.2539 1580.59 179.809 1560.15 203.031 1555.01 741.629 1435.27 909.34 1311.92 939.797 1286.2 972.754 1322.91 1020.31 1345.99 1073.3 1345.99 1132.96 1345.99 1186.63 1315.95 1219.31 1269.65 1250.19 1293.98 1292.6 1314.84 1347.67 1314.84 1372.7 1314.84 1398.57 1310.25 1424.71 1301.35 1485.48 1280.49 1516.91 1240.03 1533.18 1203.45 1553.49 1212.63 1578.66 1219.44 1608.14 1219.44 1637.2 1219.44 1667.38 1212.77 1697.69 1199.7 1796.99 1157.14 1812.42 1059.52 1803.38 986.09 1810.48 986.93 1817.57 987.211 1824.8 987.211 1942.45 987.211 2038.26 891.391 2038.26 773.602 2038.26 737.168 2028.95 702.82 2012.68 672.781 2044.66 654.699 2126.29 614.102 2198.05 623.141 2255.2 630.371 2277.04 649.84 2284.82 660.961 2290.25 668.469 2295.81 677.371 2290.53 683.77L2138.53 852.59C2138.53 852.59 2113.5 876.23 2121.84 885.41 2130.32 894.871 2145.9 881.379 2156.75 872.199 2234.06 807.68 2328.49 710.191 2328.49 710.191 2330.16 709.078 2336.42 696.84 2371.32 690.578 2401.36 685.16 2454.62 688.359 2491.47 718.539 2500.79 726.18 2510.11 735.781 2517.89 745.512 2517.2 744.961 2516.78 744.398 2516.09 744.121 2555.02 793.91 2511.78 844.109 2511.78 844.109L2334.33 1043.39C2334.33 1043.39 2308.88 1066.89 2317.64 1076.21 2325.29 1084.41 2341.7 1072.04 2352.83 1062.86 2409.01 1015.85 2488.27 936.309 2564.34 861.77 2579.22 850.918 2645.97 809.621 2734.56 867.609 2788.37 902.801 2799.08 946.18 2797.55 978.719 2793.8 1021.97 2760.14 1052.71 2760.14 1052.71L2517.89 1296.35C2517.89 1296.35 2492.17 1318.18 2501.35 1329.31 2508.72 1338.62 2525.26 1325.27 2536.25 1316.09 2613.43 1251.57 2822.31 1059.94 2822.31 1059.94 2825.37 1057.85 2897.54 1006.4 2986.68 1063.28 3018.66 1083.72 3038.97 1114.45 3040.64 1150.19 3043.7 1212.07 3000.03 1248.93 3000.03 1248.93L2999.89 1248.79" fill="#ffffff"/>
<path transform="matrix(.1,0,0,-.1,0,272.69)" d="M1824.52 940.059C1786.97 940.48 1745.81 918.09 1740.53 921.43 1737.47 923.379 1742.89 938.531 1746.37 947.16 1749.98 955.781 1799.49 1104.72 1678.92 1156.31 1586.58 1195.94 1530.12 1151.3 1510.79 1131.28 1505.79 1125.99 1503.42 1126.41 1502.87 1133.09 1500.92 1159.93 1488.96 1232.52 1409.28 1256.85 1295.38 1291.62 1222.23 1212.21 1203.6 1183.57 1195.26 1248.51 1140.47 1298.85 1073.3 1298.99 1000.29 1298.99 941.047 1239.89 941.047 1167.02 941.047 1094.01 1000.15 1034.77 1073.16 1034.77 1107.24 1034.72 1140.01 1047.94 1164.52 1071.62 1165.22 1070.92 1165.64 1069.67 1165.22 1067.17 1159.66 1034.49 1149.37 915.73 1273.83 867.328 1323.75 848 1366.17 862.328 1401.35 886.941 1411.78 894.309 1413.45 891.25 1412.06 881.379 1407.61 850.789 1413.31 785.43 1504.95 748.301 1574.76 719.93 1615.93 748.852 1643.04 774.02 1654.86 784.73 1658.06 782.922 1658.62 766.371 1661.96 677.93 1735.38 607.699 1824.52 607.699 1916.44 607.699 1990.84 681.82 1990.98 773.738 1990.98 865.672 1916.58 939.09 1824.8 940.199L1824.52 940.059" fill="#ffffff"/>
<path transform="matrix(.1,0,0,-.1,0,272.69)" d="M7735.58 597.691C7700.95 551.66 7651.31 528.43 7586.51 528.43 7521.7 528.43 7471.78 551.52 7436.87 597.691 7401.69 643.578 7384.31 709.078 7384.31 793.91 7384.31 878.738 7401.69 944.102 7436.87 989.852 7471.78 1035.74 7521.7 1058.55 7586.51 1058.55 7651.31 1058.55 7700.95 1035.6 7735.58 989.852 7770.35 944.102 7787.59 878.738 7787.59 793.91 7787.59 709.078 7770.21 643.578 7735.58 597.691M7912.89 1111.53C7841.27 1201.23 7732.66 1246.01 7587.06 1246.01 7441.46 1246.01 7332.99 1201.23 7261.51 1111.53 7189.89 1021.97 7154.16 916.148 7154.16 794.051 7154.16 671.949 7189.9 563.48 7261.51 475.172 7332.99 387.148 7441.6 342.922 7587.06 342.922 7732.52 342.922 7841.27 387.148 7912.89 475.172 7984.37 563.621 8019.97 669.859 8019.97 794.051 8019.97 918.23 7984.23 1021.97 7912.89 1111.53M5960.43 697.68C5959.04 623.281 5937.76 572.102 5896.88 544.012 5855.99 515.922 5811.21 501.871 5762.82 501.871 5732.08 501.871 5706.08 510.5 5684.66 527.32 5663.25 544.148 5652.54 571.68 5652.54 609.648 5652.54 652.199 5670.06 683.629 5705.11 703.93 5725.97 715.891 5759.9 726.039 5807.18 734.109L5857.94 743.57C5883.25 748.43 5902.99 753.441 5917.32 758.859 5932.06 764.148 5946.24 771.238 5960.43 780.281V697.539 697.68ZM6073.21 1182.04C6000.62 1218.61 5917.6 1237.24 5824.28 1237.24 5680.63 1237.24 5579.39 1199.84 5520.43 1125.02 5483.44 1077.18 5462.44 1016.13 5457.71 941.73H5672.43C5677.71 974.551 5688.14 1000.56 5703.99 1019.75 5726.1 1045.75 5763.79 1058.83 5816.91 1058.83 5864.61 1058.83 5900.49 1052.29 5924.97 1038.94 5949.3 1025.73 5961.68 1001.67 5961.68 966.762 5961.68 938.121 5945.69 917.121 5913.84 903.629 5896.04 895.84 5866.42 889.449 5824.98 884.16L5749.05 874.98C5662.69 864 5596.91 845.781 5552.69 820.328 5471.34 773.469 5430.87 697.949 5430.87 593.52 5430.87 513 5455.9 450.699 5506.52 406.75 5556.86 362.672 5620.97 344.309 5698.43 340.699 6183.35 319 6177.92 596.441 6182.37 654.012V973.301C6182.37 1075.65 6146.22 1145.32 6073.76 1182.31L6073.21 1182.04ZM6843.62 711.441C6835 660.961 6821.1 623.551 6801.77 600.051 6761.02 544.012 6697.61 524.262 6611.8 540.121 6525.86 556.391 6482.89 638.852 6482.89 787.512 6482.89 856.629 6495.69 917.949 6521.69 971.91 6547.56 1025.59 6596.79 1052.71 6669.79 1052.71 6723.47 1052.71 6764.36 1033.24 6792.17 994.578 6820.12 955.781 6837.92 911.699 6845.43 861.91 6852.94 812.398 6852.25 762.199 6843.76 711.578L6843.62 711.441ZM6937.07 1159.37C6861.28 1216.8 6783.83 1246.84 6650.46 1243.36 6515.29 1239.75 6416.84 1201.92 6355.65 1118.9 6294.46 1036.02 6264 927.551 6264 794.051 6264 679.879 6287.09 587.68 6333.12 517.309 6379.29 447.359 6434.64 399.379 6499.16 373.66 6563.41 347.648 6628.35 342.371 6693.85 357.25 6759.35 372.398 6811.5 409.949 6850.02 470.309V415.512C6845.57 346.398 6829.02 294.809 6800.23 260.18 6771.03 225.832 6738.91 204.828 6703.45 197.18 6668.26 189.809 6632.66 193.852 6597.34 210.121 6561.74 226.25 6535.6 249.469 6518.35 279.512H6283.19C6344.1 96.5 6453.41 15.6992 6650.32 1.37891 6968.08-21.5586 7069.32 247.52 7068.91 392.57V848.559C7068.91 999.309 7019.82 1095.96 6936.8 1158.95L6937.07 1159.37ZM5096.7 603.109C5063.88 557.641 5019.1 535.109 4962.23 535.109 4901.04 535.109 4853.89 557.641 4821.21 603.109 4788.39 644.141 4771.98 705.32 4771.98 787.512 4771.98 875.82 4787.28 940.621 4817.74 981.641 4850.7 1026.84 4896.59 1049.65 4955.55 1049.65 5014.51 1049.65 5063.74 1026.84 5096.56 981.641 5129.52 936.309 5145.79 871.641 5145.79 787.512 5145.79 709.629 5129.38 648.309 5096.56 603.109H5096.7ZM5020.63 1239.33C4836.93 1247.95 4744.03 1204.15 4683.54 1157.98 4599.96 1094.29 4549.07 999.859 4549.07 849.121V73.9688H4657.12C4686.18 73.9688 4714.97 83.9883 4736.25 103.59 4760.16 125.57 4771.99 152.41 4771.99 183.969V473.641C4798.27 428.309 4833.03 394.93 4876.84 373.238 4918.28 353.91 4966.4 344.172 5021.05 344.172 5123.82 344.172 5208.09 385.059 5273.59 467.109 5339.09 551.379 5371.91 661.238 5371.91 797.109 5371.91 932.969 5340.9 1029.76 5266.5 1120.43 5206.42 1193.58 5115.06 1234.88 5020.35 1239.19L5020.63 1239.33ZM9599.74 1814.36C9567.19 1767.64 9519.36 1744.41 9456.64 1744.41 9393.92 1744.41 9347.06 1767.91 9316.32 1814.78 9285.45 1861.78 9270.15 1930.06 9270.15 2008.36 9270.15 2080.95 9285.17 2141.72 9315.49 2190.67 9345.81 2239.62 9393.36 2264.23 9458.17 2264.23 9500.72 2264.23 9537.99 2250.74 9570.26 2223.91 9622.54 2179.27 9648.83 2099.16 9648.83 1995.56 9648.83 1921.58 9632.42 1861.09 9599.74 1814.36M9642.71 2569.34 9642.43 2330.29C9617.54 2370.34 9585.27 2401.49 9545.36 2424.02 9505.59 2446.55 9459.98 2457.81 9408.52 2457.81 9296.99 2457.81 9208.13 2416.23 9141.52 2333.49 9074.77 2250.46 9041.53 2130.87 9041.53 1986.24 9041.53 1860.67 9075.33 1757.9 9143.05 1677.8 9210.77 1597.84 9343.3 1562.66 9461.09 1562.66 9871.88 1562.66 9867.16 1914.91 9867.16 1914.91V2725.65C9867.16 2725.65 9642.71 2749.71 9642.71 2569.06V2569.34ZM5414.32 2460.73C5310.72 2460.73 5221.16 2415.39 5161.09 2342.67 5103.93 2415.39 5015.9 2460.73 4907.57 2460.73 4689.66 2460.73 4549.07 2300.67 4549.07 2088.73V1580.46H4752.93V2093.6C4752.93 2187.33 4816.21 2252 4907.43 2252 5041.77 2252 5055.82 2140.47 5055.82 2093.6V1580.46H5259.68V2093.6C5259.68 2187.33 5324.63 2252 5414.18 2252 5548.66 2252 5564.1 2140.47 5564.1 2093.6V1580.46H5767.82V2088.73C5767.82 2307.2 5636.69 2460.73 5414.05 2460.73H5414.32ZM6086.28 2095.69C6094.21 2150.89 6114.09 2194.56 6145.24 2226.82 6176.67 2259.09 6220.62 2275.22 6277.63 2275.22 6329.92 2275.22 6373.73 2260.06 6409.19 2229.47 6444.37 2199.01 6464.12 2154.38 6468.15 2095.69H6086.42 6086.28ZM6623.35 2292.88C6584.83 2350.04 6535.88 2391.75 6476.77 2418.32 6417.67 2444.6 6351.34 2457.81 6277.63 2457.81 6153.31 2457.81 6052.35 2418.59 5974.47 2340.44 5896.6 2262.01 5857.66 2149.51 5857.66 2002.65 5857.66 1845.93 5900.77 1732.73 5987.13 1663.34 6073.21 1593.81 6172.92 1558.9 6285.56 1558.9 6422.26 1558.9 6528.51 1600.2 6604.43 1682.67 6645.46 1725.92 6671.05 1768.89 6681.89 1811.3H6445.21C6435.89 1797.95 6425.88 1786.41 6414.75 1777.51 6383.18 1751.64 6340.49 1743.72 6290.01 1743.72 6242.31 1743.72 6205.04 1750.95 6171.25 1772.23 6115.63 1806.43 6084.2 1864.29 6080.86 1949.39H6698.3C6699.14 2022.68 6696.77 2078.72 6690.93 2117.66 6680.78 2183.99 6658.11 2242.54 6623.49 2292.88H6623.35ZM7264.85 2457.81C6773.12 2457.81 6802.18 2022.54 6802.18 2022.54V1580.32H7025.24V1995C7025.24 2063.01 7033.86 2113.21 7050.83 2146.03 7081.42 2204.02 7141.36 2233.22 7230.5 2233.22 7237.18 2233.22 7246.08 2232.8 7256.92 2232.39 7267.77 2231.83 7280.15 2230.86 7294.33 2229.19V2456.14C7284.46 2456.84 7277.92 2457.11 7275.14 2457.39 7272.22 2457.67 7268.74 2457.81 7264.57 2457.81H7264.85ZM7758.11 2270.49C7813.6 2270.49 7854.34 2253.39 7880.77 2219.04 7898.7 2193.73 7909.97 2165.22 7914.42 2133.51H8153.75C8140.68 2254.36 8098.4 2338.63 8027.06 2386.33 7955.44 2433.89 7863.8 2457.81 7751.71 2457.81 7619.88 2457.81 7516.42 2417.34 7441.6 2336.55 7366.65 2255.61 7329.1 2142.55 7329.1 1997.09 7329.1 1868.32 7363.03 1763.46 7430.89 1682.53 7498.76 1601.73 7604.58 1561.26 7748.38 1561.26 7892.17 1561.26 8001.06 1609.8 8074.2 1706.73 8120.1 1766.8 8145.82 1830.49 8151.25 1897.94H7912.75C7907.88 1853.3 7893.98 1817 7870.89 1789.05 7847.95 1761.24 7809.15 1747.19 7754.22 1747.19 7677.04 1747.19 7624.33 1782.38 7596.52 1853.02 7581.22 1890.71 7573.43 1940.49 7573.43 2002.65 7573.43 2064.82 7581.22 2119.89 7596.52 2159.38 7625.58 2233.36 7679.54 2270.49 7758.25 2270.49H7758.11ZM8751.86 1920.88C8750.33 1846.63 8729.06 1795.31 8688.17 1767.22 8647.29 1739.13 8602.51 1725.08 8554.11 1725.08 8523.38 1725.08 8497.38 1733.7 8475.96 1750.53 8454.54 1767.5 8443.98 1794.89 8443.98 1832.86 8443.98 1875.41 8461.5 1906.84 8496.4 1927.14 8517.12 1939.1 8551.19 1949.25 8598.61 1957.32L8649.23 1966.77C8674.4 1971.64 8694.29 1976.79 8708.75 1982.21 8723.36 1987.5 8737.54 1994.59 8751.73 2003.49V1920.75L8751.86 1920.88ZM8864.51 2405.38C8792.05 2442.1 8709.03 2460.59 8615.58 2460.59 8471.93 2460.59 8370.55 2423.18 8311.59 2348.37 8274.46 2300.53 8253.6 2239.34 8248.87 2164.94H8463.44C8468.73 2197.9 8479.16 2223.77 8495.01 2242.96 8517.12 2268.96 8554.81 2281.89 8607.93 2281.89 8655.35 2281.89 8691.37 2275.36 8715.99 2262.01 8740.32 2248.8 8752.7 2224.74 8752.7 2189.97 8752.7 2161.32 8736.71 2140.47 8704.86 2126.84 8687.06 2119.05 8657.44 2112.52 8616 2107.37L8539.93 2098.05C8453.57 2087.07 8387.93 2068.85 8343.57 2043.4 8262.36 1996.54 8221.75 1921.02 8221.75 1816.45 8221.75 1735.93 8246.78 1673.63 8297.4 1629.68 8347.74 1585.74 8411.85 1567.38 8489.17 1563.77 8974.37 1542.07 8968.94 1819.37 8973.39 1877.08V2196.37C8973.39 2298.72 8937.1 2368.53 8864.64 2405.52L8864.51 2405.38ZM10515.5 1816.31C10480.7 1770.28 10431.1 1747.19 10366.1 1747.19 10301.2 1747.19 10251.4 1770.28 10216.5 1816.31 10181.4 1862.34 10164.1 1927.84 10164.1 2012.8 10164.1 2097.77 10181.4 2163 10216.5 2208.89 10251.5 2254.64 10301.5 2277.59 10366.1 2277.59 10430.8 2277.59 10480.7 2254.64 10515.5 2208.89 10550.1 2163 10567.5 2097.64 10567.5 2012.8 10567.5 1927.98 10550.1 1862.34 10515.5 1816.31M10692.6 2330.43C10621.2 2420.13 10512.6 2464.9 10366.8 2464.9 10221.1 2464.9 10112.6 2420.13 10041.1 2330.43 9969.51 2240.87 9933.77 2134.9 9933.77 2012.67 9933.77 1890.43 9969.51 1782.1 10041.1 1693.65 10112.6 1605.49 10221.2 1561.26 10366.8 1561.26 10512.4 1561.26 10621 1605.49 10692.6 1693.65 10764.3 1782.1 10800 1888.34 10800 2012.67 10800 2136.99 10764.3 2240.73 10692.6 2330.43M1970.4 227.5C924.359 227.5 76.3477 769.988 76.3477 1439.17 76.3477 1466.14 78.1523 1492.71 80.9336 1519.27 89.2813 1517.32 172.301 1497.43 189.543 1493.54 699.77 1380.2 868.316 1262.42 896.824 1240.17 887.23 1217.08 882.086 1191.91 882.086 1166.88 882.086 1061.47 967.746 975.531 1073.16 975.531 1084.98 975.531 1096.66 976.641 1108.2 978.719 1124.06 901.129 1174.81 842.301 1252.41 812.129 1275.08 803.359 1298.02 799.051 1320.55 799.051 1335.16 799.051 1349.76 800.719 1364.08 804.48 1378.4 768.18 1410.67 722.852 1482.7 693.5 1507.87 683.352 1533.18 678.07 1557.8 678.07 1577.82 678.07 1597.43 681.68 1616.2 688.5 1650.69 604.359 1733.02 548.602 1824.52 548.602 1885.29 548.602 1943.56 573.352 1986.11 617.16 2022.41 596.852 2099.31 560.281 2177.05 560.141 2187.06 560.141 2196.38 560.84 2205.97 561.949 2283.02 571.68 2318.89 601.859 2335.3 625.219 2338.36 629.262 2341.01 633.711 2343.23 638.16 2361.45 633.012 2381.47 628.699 2404.42 628.559 2446.42 628.559 2486.88 642.879 2527.77 672.641 2567.96 701.57 2596.47 743.148 2600.5 778.469 2600.5 778.891 2600.5 779.449 2600.64 780 2614.27 777.219 2628.03 775.828 2641.94 775.828 2685.33 775.828 2728.02 789.32 2768.63 816.02 2847.34 867.469 2860.83 934.781 2859.58 978.859 2873.48 975.941 2887.39 974.551 2901.43 974.551 2942.04 974.551 2982.09 986.789 3020.06 1011.13 3068.73 1042.28 3098.21 1089.98 3102.66 1145.46 3105.58 1183.15 3096.26 1221.25 3076.38 1253.93 3207.79 1310.53 3508.17 1420.11 3861.95 1499.94 3863.48 1479.91 3864.31 1459.75 3864.31 1439.44 3864.31 770.27 3016.44 227.781 1970.4 227.781V227.5ZM1420.68 897.93 1415.26 902.801H1409.83C1405.38 902.801 1400.79 900.988 1394.54 896.68 1369.09 878.738 1344.75 870.121 1319.86 870.121 1306.23 870.121 1292.18 872.898 1278.14 878.18 1162.3 923.238 1171.48 1032.54 1177.18 1065.36 1178.01 1072.04 1176.34 1077.18 1172.17 1080.66L1163.97 1087.33 1156.32 1080.1C1134.07 1058.51 1104.29 1046.44 1073.3 1046.45 1006.96 1046.45 953.008 1100.41 953.008 1166.74 953.008 1233.07 1007.1 1286.89 1073.44 1286.75 1133.37 1286.75 1184.41 1241.69 1192.06 1181.9L1196.23 1149.63 1214.03 1176.89C1215.98 1180.09 1264.65 1253.52 1353.93 1253.52 1370.89 1253.52 1388.42 1250.73 1406.08 1245.31 1477.28 1223.62 1489.38 1159.09 1491.18 1132.11 1492.44 1116.4 1503.56 1115.7 1505.79 1115.7 1511.91 1115.7 1516.49 1119.6 1519.69 1122.93 1542.75 1147.07 1574.76 1160.61 1608.14 1160.34 1629.14 1160.34 1651.39 1155.34 1674.47 1145.32 1787.67 1096.79 1736.36 953 1735.66 951.469 1725.93 927.691 1725.51 917.121 1734.69 911L1739.14 908.91H1742.47C1747.48 908.91 1753.88 911.141 1764.45 914.621 1779.88 919.898 1803.11 927.969 1824.8 927.969 1910.05 926.988 1979.3 857.602 1979.3 773.469 1979.3 688.359 1909.91 619.238 1824.8 619.238 1741.5 619.238 1673.78 684.051 1670.72 766.512 1670.44 773.609 1669.74 792.379 1653.75 792.379 1647.21 792.379 1641.51 788.48 1635.12 782.512 1616.76 765.539 1593.4 748.301 1559.47 748.301 1544.03 748.301 1527.34 751.91 1509.54 759.141 1421.65 794.879 1420.4 855.238 1424.02 879.43 1424.99 885.969 1425.27 892.641 1420.82 897.93H1420.68ZM494.234 2198.04C734.539 2099.72 1026.02 2023.93 1118.08 2017.95 1143.8 2016.28 1171.2 2013.36 1198.59 2013.36 1259.78 2013.36 1320.69 2030.47 1379.8 2047.02 1414.7 2056.75 1453.22 2067.46 1493.69 2075.25 1482.84 2064.68 1472.13 2053.97 1461.29 2042.98L1294.27 1862.34C1281.2 1849.13 1252.55 1813.66 1271.46 1770 1278.97 1752.48 1294.13 1735.51 1315.41 1721.33 1355.18 1694.49 1426.52 1676.41 1492.71 1676.41 1517.75 1676.41 1541.67 1678.91 1563.36 1683.78 1633.45 1699.49 1706.87 1758.04 1784.61 1819.79 1846.63 1869.01 1934.66 1931.59 2002.11 1949.95 2021.02 1955.09 2044.1 1958.29 2062.74 1958.29 2068.3 1958.29 2073.59 1958.02 2078.45 1957.32 2122.95 1951.62 2166.06 1936.6 2242.97 1878.89 2380.08 1775.84 2986.68 1245.17 2992.66 1239.89 2993.08 1239.61 3031.74 1206.09 3029.1 1150.75 3027.7 1119.74 3010.46 1092.34 2980.56 1073.29 2954.7 1056.88 2928 1048.53 2901.02 1048.53 2860.41 1048.53 2832.6 1067.59 2830.65 1068.84 2828.43 1070.65 2620.66 1261.3 2544.04 1325.27 2531.8 1335.42 2519.98 1344.46 2508.16 1344.46 2501.76 1344.46 2496.06 1341.82 2492.31 1336.95 2480.35 1322.07 2493.7 1301.63 2509.69 1288.14L2752.5 1044.09C2752.5 1044.09 2782.81 1015.85 2786.15 978.309 2788.1 937.84 2768.77 904.051 2728.58 877.629 2699.93 858.711 2671 849.121 2642.5 849.121 2605.09 849.121 2579.08 866.078 2573.24 870.121L2538.48 904.461C2474.79 967.039 2409.01 1031.85 2361.03 1072.04 2349.21 1081.77 2336.83 1090.81 2324.87 1090.81 2318.89 1090.81 2313.75 1088.59 2309.58 1084.27 2304.15 1078.16 2300.26 1067.17 2314.03 1049.09 2319.59 1041.58 2326.26 1035.46 2326.26 1035.46L2503.43 836.461C2504.82 834.648 2540.01 793.07 2507.47 751.488L2501.21 743.57C2495.78 737.73 2490.22 732.301 2484.66 727.711 2454.48 702.961 2414.15 700.32 2398.02 700.32 2389.4 700.32 2381.19 701.012 2374.1 702.398 2356.58 705.461 2344.9 710.469 2339.2 717.148L2336.97 719.371C2327.38 729.379 2238.1 820.609 2164.12 882.211 2154.38 890.422 2142.28 900.57 2129.63 900.57 2123.37 900.57 2117.95 898.211 2113.63 893.48 2099.03 877.488 2121.01 853.57 2130.32 844.809L2281.35 678.07C2281.21 676.539 2279.4 673.199 2275.64 667.922 2270.22 660.41 2251.86 642.051 2197.07 635.238 2190.54 634.398 2183.72 633.988 2177.05 633.988 2120.45 633.988 2060.23 661.52 2029.08 677.93 2043.27 707.828 2050.64 740.789 2050.64 773.738 2050.64 898.07 1949.68 999.309 1825.35 999.449 1822.71 999.449 1819.93 999.449 1817.15 999.309 1821.18 1056.18 1813.26 1163.68 1702.84 1210.96 1671.13 1224.73 1639.43 1231.68 1608.55 1231.68 1584.5 1231.68 1561.27 1227.51 1539.44 1219.17 1516.63 1263.67 1478.53 1295.93 1429.02 1312.9 1401.63 1322.35 1374.37 1327.08 1348.09 1327.08 1302.2 1327.08 1259.78 1313.59 1222.09 1286.75 1185.94 1331.81 1131.29 1358.37 1073.85 1358.37 1023.51 1358.37 975.117 1338.21 939.238 1302.61 892.234 1338.48 705.609 1457.11 206.23 1570.44 182.313 1575.87 128.215 1591.3 94.1445 1601.32 141.008 1825.49 283.41 2030.19 494.789 2198.18L494.234 2198.04ZM1970.26 2650.83C2547.66 2650.83 3064.42 2485.35 3411.8 2224.6 3243.81 2152.01 3083.89 2115.16 2929.39 2115.3 2771.41 2115.43 2613.43 2153.4 2460.18 2228.21 2452.12 2232.11 2259.79 2322.78 2059.68 2322.92 2054.4 2322.92 2049.11 2322.92 2043.83 2322.78 1808.67 2317.22 1676.28 2233.78 1587.14 2160.63 1500.5 2158.55 1425.83 2137.55 1359.21 2119.05 1299.83 2102.64 1248.66 2088.32 1198.59 2088.32 1178.01 2088.32 1141.02 2090.27 1137.68 2090.4 1080.39 2092.07 792.25 2162.72 562.238 2249.63 908.926 2496.05 1411.22 2650.97 1970.12 2650.97L1970.26 2650.83ZM3850.83 1581.29C3422.79 1486.17 3103.5 1347.94 3023.39 1312.34 2836.49 1475.32 2404.7 1850.93 2287.74 1938.68 2220.85 1989.03 2175.24 2015.45 2135.33 2027.41 2117.39 2032.83 2092.5 2038.95 2060.51 2039.09 2030.75 2039.09 1998.77 2033.66 1965.53 2023.1 1889.88 1999.18 1814.65 1939.38 1741.78 1881.39L1738.02 1878.47C1670.16 1824.51 1600.07 1768.75 1546.95 1756.93 1523.73 1751.78 1499.95 1749 1476.17 1749 1416.65 1749 1363.25 1766.25 1343.22 1791.7 1339.88 1795.87 1342.11 1802.68 1349.76 1812.55L1350.73 1813.95 1515.1 1991.11C1643.88 2119.89 1765.42 2241.43 2045.36 2247.82 2049.95 2247.82 2054.67 2248.1 2059.26 2248.1 2233.51 2248.1 2407.76 2169.95 2427.23 2160.91 2590.63 2081.23 2759.31 2040.76 2928.69 2040.62 3104.89 2040.62 3286.92 2084.14 3478.13 2172.04 3677.83 2004.05 3810.22 1801.85 3850.55 1581.43L3850.83 1581.29ZM1969.98 2726.9C882.086 2726.9 .277344 2148.25 .277344 1438.61 .277344 1420.25 0 1369.63 0 1363.24 0 610.199 770.832 .410156 1969.7 .410156 3168.58 .410156 3939.69 610.07 3939.69 1363.1V1438.61C3939.69 2148.39 3057.88 2726.9 1969.98 2726.9" fill="#23408d"/>
</svg>
