<svg xmlns="http://www.w3.org/2000/svg" viewBox="0 0 1080 449.4" role="img" aria-label="Stripe">
<path transform="matrix(.1,0,0,-.1,0,449.4)" d="M9318 2457C9318 2796 9525 2937 9714 2937 9897 2937 10092 2796 10092 2457H9318ZM10800 2172C10800 2940 10428 3546 9717 3546 9003 3546 8571 2940 8571 2178 8571 1275 9081 819 9813 819 10170 819 10440 900 10644 1014V1614C10440 1512 10206 1449 9909 1449 9618 1449 9360 1551 9327 1905H10794C10794 1944 10800 2100 10800 2172" fill="#4157a7" fill-rule="evenodd"/>
<path transform="matrix(.1,0,0,-.1,0,449.4)" d="M7233 1479C7056 1479 6951 1542 6879 1620L6876 2733C6954 2820 7062 2880 7233 2880 7506 2880 7695 2574 7695 2181 7695 1779 7509 1479 7233 1479ZM7413 3546C7119 3546 6930 3408 6825 3312L6786 3498H6126V0L6876 159 6879 1008C6987 930 7146 819 7410 819 7947 819 8436 1251 8436 2202 8433 3072 7938 3546 7413 3546" fill="#4157a7" fill-rule="evenodd"/>
<path transform="matrix(.1,0,0,-.1,0,449.4)" d="M5094 3723 5847 3885V4494L5094 4335V3723" fill="#4157a7" fill-rule="evenodd"/>
<path transform="matrix(.1,0,0,-.1,0,449.4)" d="M5094 3495H5847V870H5094V3495" fill="#4157a7" fill-rule="evenodd"/>
<path transform="matrix(.1,0,0,-.1,0,449.4)" d="M4287 3273 4239 3495H3591V870H4341V2649C4518 2880 4818 2838 4911 2805V3495C4815 3531 4464 3597 4287 3273" fill="#4157a7" fill-rule="evenodd"/>
<path transform="matrix(.1,0,0,-.1,0,449.4)" d="M2787 4146 2055 3990 2052 1587C2052 1143 2385 816 2829 816 3075 816 3255 861 3354 915V1524C3258 1485 2784 1347 2784 1791V2856H3354V3495H2784L2787 4146" fill="#4157a7" fill-rule="evenodd"/>
<path transform="matrix(.1,0,0,-.1,0,449.4)" d="M759 2733C759 2850 855 2895 1014 2895 1242 2895 1530 2826 1758 2703V3408C1509 3507 1263 3546 1014 3546 405 3546 0 3228 0 2697 0 1869 1140 2001 1140 1644 1140 1506 1020 1461 852 1461 603 1461 285 1563 33 1701V987C312 867 594 816 852 816 1476 816 1905 1125 1905 1662 1902 2556 759 2397 759 2733" fill="#4157a7" fill-rule="evenodd"/>
</svg>
